<svg width="239" height="60" viewBox="0 0 239 60" fill="none" xmlns="http://www.w3.org/2000/svg">
<path d="M70.5201 18.4832H55.9374C55.5374 18.4832 55.4033 18.6173 55.4033 19.0197V41.059C55.4033 41.4613 55.5374 41.5954 55.9374 41.5954H70.5478C70.9478 41.5954 71.0288 41.4613 71.0288 41.059V39.852C71.0288 39.4474 70.9201 39.3133 70.5478 39.3133H57.9929V31.0728H69.9328C70.3328 31.0728 70.4669 30.9387 70.4669 30.5364V29.3272C70.4669 28.9249 70.3328 28.7908 69.9328 28.7908H57.9929V20.7653H70.5201C70.8947 20.7653 71.001 20.6312 71.001 20.2289V19.0197C71.0288 18.6173 70.8947 18.4832 70.5201 18.4832V18.4832ZM102.409 18.4832H100.835C100.435 18.4832 100.3 18.5919 100.3 19.022V36.6312L84.9941 18.296C84.8623 18.1341 84.7559 18.0532 84.5686 18.0532H84.4068C84.1686 18.0532 84.1155 18.0809 84.1155 18.3237V20.0948L86.7051 23.2879L101.956 41.7318C102.141 41.9168 102.277 42 102.437 42H102.599C102.784 42 102.865 41.9723 102.865 41.7318V18.9919C102.918 18.5896 102.811 18.4832 102.409 18.4832V18.4832ZM125.914 28.8185C122.307 28.3607 119.262 27.6624 119.262 24.9526C119.262 23.2347 120.358 20.4439 125.327 20.4439C127.623 20.4439 129.787 21.1931 131.896 22.6173C132.03 22.7237 132.136 22.7514 132.189 22.7514C132.351 22.7514 132.483 22.6173 132.617 22.3746L133.232 21.3549C133.364 21.0312 133.417 20.8185 133.07 20.6289C130.587 19.1006 128.37 18.1318 125.006 18.1318C118.647 18.1318 116.726 22.4832 116.726 25.0335C116.726 29.4081 120.892 30.5087 124.472 30.9919C128.772 31.5815 131.228 32.4694 131.228 35.2069C131.228 38.6428 128.076 39.6347 125.059 39.6347C122.601 39.6347 119.88 38.8832 117.766 37.4335C117.66 37.3502 117.529 37.3032 117.394 37.2994C117.232 37.2994 117.126 37.4081 116.992 37.6231L116.379 38.6682C116.192 39.0451 116.192 39.2069 116.513 39.3942C118.996 41.1399 121.907 41.9445 125.38 41.9445C131.015 41.9445 133.739 38.6428 133.739 35.1237C133.766 30.696 130.159 29.3803 125.914 28.8185V28.8185ZM149.311 18.4832H147.734C147.334 18.4832 147.202 18.6173 147.202 19.0197V41.059C147.202 41.4613 147.334 41.5954 147.734 41.5954H149.311C149.711 41.5954 149.792 41.4613 149.792 41.059V19.0197C149.817 18.6173 149.711 18.4832 149.311 18.4832ZM200.751 18.4832H199.174C198.774 18.4832 198.643 18.6173 198.643 19.0197V41.059C198.643 41.4613 198.774 41.5954 199.174 41.5954H200.751C201.151 41.5954 201.232 41.4613 201.232 41.059V19.0197C201.232 18.6173 201.124 18.4832 200.751 18.4832ZM226.31 18.0555C219.847 18.0555 214.559 23.4775 214.559 30.0278C214.559 36.6035 219.847 42 226.31 42C232.774 41.9977 238.062 36.5757 238.062 30.0278C238.062 23.4775 232.774 18.0555 226.31 18.0555ZM226.31 39.6902C221.181 39.6902 217.177 34.9665 217.177 30.0254C217.177 25.0335 221.184 20.363 226.31 20.363C231.491 20.363 235.445 25.0335 235.445 30.0278C235.417 34.9665 231.491 39.6925 226.312 39.6925L226.31 39.6902ZM84.1432 41.1121C84.1432 41.4613 84.2496 41.5699 84.5964 41.5699H85.9051C86.2519 41.5699 86.3582 41.4613 86.3582 41.1121V26.0254L84.1409 23.2879V41.1144L84.1432 41.1121ZM164.747 41.5145H166.324C166.724 41.5145 166.858 41.4081 166.858 40.978V23.3688L182.162 41.7041C182.296 41.8659 182.402 41.9445 182.589 41.9445H182.751C182.989 41.9445 183.043 41.9191 183.043 41.6763V39.9052L180.453 36.7098L165.174 18.2682C164.989 18.0809 164.855 18 164.694 18H164.536C164.351 18 164.27 18.0277 164.27 18.2682V41.0058C164.27 41.4358 164.377 41.5145 164.749 41.5145H164.747ZM183.043 18.8856C183.043 18.5387 182.936 18.4301 182.589 18.4301H181.281C180.934 18.4301 180.825 18.5364 180.825 18.8856V33.9723L183.045 36.7098V18.8856H183.043Z" fill="white"/>
<path opacity="0.5" d="M35.4691 48.2663C35.4691 48.2663 23.6321 45.1115 12.8912 46.9337L11.2412 39.1298C11.2412 39.1298 25.7693 38.2597 34.1973 40.3266L35.4691 48.2663Z" fill="url(#paint0_linear_1_82)"/>
<path opacity="0.5" d="M37.4035 33.5556C37.4035 33.5556 21.9409 29.4359 7.9 31.8154L5.74878 21.6039C5.74878 21.6039 24.728 20.4621 35.7394 23.1684L37.4023 33.5556H37.4035Z" fill="url(#paint1_linear_1_82)"/>
<path d="M7.66921 17.3351L32.0458 28.4425C36.2124 30.5914 37.4034 33.5553 37.4034 33.5553L37.3624 30.8619L37.3085 26.8381L37.2945 26.3077C37.2125 21.223 34.197 16.6418 29.5573 14.6018L7.16917 4.71934C1.20384 1.83504 0 0 0 0L0.026935 1.56335L0.0679216 4.37739L0.0808028 5.69716C0.115081 8.15621 0.846305 10.5551 2.18954 12.6151C3.53278 14.6752 5.4329 16.3118 7.66921 17.3351V17.3351Z" fill="white"/>
<path d="M11.8498 35.3773L31.2202 44.2C34.5342 45.9132 35.4828 48.2659 35.4828 48.2659L35.4547 46.131L35.4008 42.9352V42.5137C35.3749 40.5385 34.7824 38.6124 33.6938 36.9641C32.6052 35.3158 31.0662 34.0148 29.2598 33.2155L11.4716 25.3695C6.72296 23.0859 5.7627 21.6174 5.7627 21.6174L5.77558 22.8681L5.80368 25.0978L5.81656 26.1447C5.8436 28.0971 6.42514 30.0016 7.49336 31.6361C8.56158 33.2705 10.0725 34.5676 11.8498 35.3761V35.3773Z" fill="white"/>
<path d="M15.8535 49.8579L30.4636 56.8045C32.9661 58.1512 33.6687 60.0003 33.6687 60.0003L33.6418 58.314L33.602 55.7986V55.459C33.547 52.2772 31.7482 49.4222 28.9623 48.1446L15.5549 41.9708C11.9703 40.1756 11.2537 39.0198 11.2537 39.0198L11.2665 39.9988L11.2935 41.753L11.3075 42.5692C11.3473 45.7229 13.1203 48.565 15.8524 49.8567L15.8535 49.8579Z" fill="white"/>
<defs>
<linearGradient id="paint0_linear_1_82" x1="35.3839" y1="43.4497" x2="11.2968" y2="43.8114" gradientUnits="userSpaceOnUse">
<stop stop-color="white"/>
<stop offset="1" stop-color="white"/>
</linearGradient>
<linearGradient id="paint1_linear_1_82" x1="37.2922" y1="27.2542" x2="5.82139" y2="27.7261" gradientUnits="userSpaceOnUse">
<stop stop-color="white"/>
<stop offset="1" stop-color="white"/>
</linearGradient>
</defs>
</svg>
